<svg width="148" height="150" viewBox="0 0 148 150" fill="none" xmlns="http://www.w3.org/2000/svg">
<path d="M76.5567 57.4983L135.615 20.84C150.051 87.5436 87.1289 113.085 53.8631 117.517C86.4544 123.842 119.028 96.1931 131.24 81.5777C118.991 106.304 99.5238 116.798 91.3213 118.955C115.929 133.69 150.461 121.111 142.532 126.502C136.188 130.815 110.268 141.086 102.613 143.034C72.6849 150.648 58.7358 154.122 40.2664 139.259C34.9363 134.969 31.1021 129.157 27.1897 123.544C13.4117 103.778 2.66632 107.412 -3.05176e-05 111.767C4.37465 75.8274 40.8302 88.6458 58.5112 99.5474C65.9482 92.9346 67.0783 71.3948 66.7137 61.4516C73.2757 92.7908 63.5671 107.208 55 112C77.9062 102.537 77.0173 72.8703 76.5604 57.6194L76.5567 57.4983Z" fill="#172B4D"/>
<path d="M87.8109 47.6509L137.354 16.3656C142.332 29.6912 138.728 49.3383 136.532 56.6177C152.665 31.8184 147.471 10.9739 145.557 0.55147L86.4973 37.2145L87.8109 47.6509Z" fill="#39A900"/>
</svg>
